<svg xmlns="http://www.w3.org/2000/svg" width="780" height="430" viewBox="0 0 780 430" font-family="system-ui, -apple-system, 'Segoe UI', sans-serif">
<rect width="780" height="430" fill="#fcfcfb"/>
<text x="24" y="48" font-size="13.5" fill="#0b0b0b" text-anchor="start" font-weight="600">Real vision-channel bypass rate by render form, six free-tier VLMs (N=120 each, image_plain n=114 for doubao-2.0-pro)</text>
<rect x="190" y="32" width="10" height="10" rx="2" fill="#2a78d6"/>
<text x="205" y="41" font-size="11.5" fill="#52514e" text-anchor="start" font-weight="400">Plain</text>
<rect x="259.5" y="32" width="10" height="10" rx="2" fill="#eb6834"/>
<text x="274.5" y="41" font-size="11.5" fill="#52514e" text-anchor="start" font-weight="400">Low-contrast (calibrated)</text>
<rect x="455.0" y="32" width="10" height="10" rx="2" fill="#1baf7a"/>
<text x="470.0" y="41" font-size="11.5" fill="#52514e" text-anchor="start" font-weight="400">Watermark</text>
<line x1="190.0" y1="56" x2="190.0" y2="390" stroke="#e1e0d9" stroke-width="1"/>
<text x="190.0" y="408" font-size="10.5" fill="#898781" text-anchor="middle" font-weight="400">0%</text>
<line x1="296.0" y1="56" x2="296.0" y2="390" stroke="#e1e0d9" stroke-width="1"/>
<text x="296.0" y="408" font-size="10.5" fill="#898781" text-anchor="middle" font-weight="400">10%</text>
<line x1="402.0" y1="56" x2="402.0" y2="390" stroke="#e1e0d9" stroke-width="1"/>
<text x="402.0" y="408" font-size="10.5" fill="#898781" text-anchor="middle" font-weight="400">20%</text>
<line x1="508.0" y1="56" x2="508.0" y2="390" stroke="#e1e0d9" stroke-width="1"/>
<text x="508.0" y="408" font-size="10.5" fill="#898781" text-anchor="middle" font-weight="400">30%</text>
<line x1="614.0" y1="56" x2="614.0" y2="390" stroke="#e1e0d9" stroke-width="1"/>
<text x="614.0" y="408" font-size="10.5" fill="#898781" text-anchor="middle" font-weight="400">40%</text>
<line x1="720.0" y1="56" x2="720.0" y2="390" stroke="#e1e0d9" stroke-width="1"/>
<text x="720.0" y="408" font-size="10.5" fill="#898781" text-anchor="middle" font-weight="400">50%</text>
<line x1="190" y1="390" x2="190" y2="56" stroke="#c3c2b7" stroke-width="1"/>
<text x="178" y="87.83333333333333" font-size="12.5" fill="#0b0b0b" text-anchor="end" font-weight="400">doubao-2.0-pro</text>
<rect x="190" y="64.3" width="9.5" height="11" rx="5.5" fill="#2a78d6"/>
<text x="207.54" y="73.33333333333333" font-size="10.5" fill="#52514e" text-anchor="start" font-weight="400">0.9%</text>
<rect x="190" y="78.3" width="19.1" height="11" rx="5.5" fill="#eb6834"/>
<text x="217.08" y="87.33333333333333" font-size="10.5" fill="#52514e" text-anchor="start" font-weight="400">1.8%</text>
<rect x="190" y="92.3" width="9.5" height="11" rx="5.5" fill="#1baf7a"/>
<text x="207.54" y="101.33333333333333" font-size="10.5" fill="#52514e" text-anchor="start" font-weight="400">0.9%</text>
<line x1="4" y1="111.66666666666666" x2="720" y2="111.66666666666666" stroke="#e1e0d9" stroke-width="1"/>
<text x="178" y="143.5" font-size="12.5" fill="#0b0b0b" text-anchor="end" font-weight="400">doubao-2.0-code</text>
<rect x="190" y="120.0" width="8.5" height="11" rx="5.5" fill="#2a78d6"/>
<text x="206.48" y="129.0" font-size="10.5" fill="#52514e" text-anchor="start" font-weight="400">0.8%</text>
<rect x="190" y="134.0" width="26.5" height="11" rx="5.5" fill="#eb6834"/>
<text x="224.5" y="143.0" font-size="10.5" fill="#52514e" text-anchor="start" font-weight="400">2.5%</text>
<rect x="190" y="148.0" width="2.0" height="11" rx="5.5" fill="#1baf7a"/>
<text x="200" y="157.0" font-size="10.5" fill="#52514e" text-anchor="start" font-weight="400">0.0%</text>
<line x1="4" y1="167.33333333333331" x2="720" y2="167.33333333333331" stroke="#e1e0d9" stroke-width="1"/>
<text x="178" y="199.16666666666666" font-size="12.5" fill="#0b0b0b" text-anchor="end" font-weight="400">minimax-m3</text>
<rect x="190" y="175.7" width="18.0" height="11" rx="5.5" fill="#2a78d6"/>
<text x="216.02" y="184.66666666666666" font-size="10.5" fill="#52514e" text-anchor="start" font-weight="400">1.7%</text>
<rect x="190" y="189.7" width="53.0" height="11" rx="5.5" fill="#eb6834"/>
<text x="251.0" y="198.66666666666666" font-size="10.5" fill="#52514e" text-anchor="start" font-weight="400">5.0%</text>
<rect x="190" y="203.7" width="18.0" height="11" rx="5.5" fill="#1baf7a"/>
<text x="216.02" y="212.66666666666666" font-size="10.5" fill="#52514e" text-anchor="start" font-weight="400">1.7%</text>
<line x1="4" y1="222.99999999999997" x2="720" y2="222.99999999999997" stroke="#e1e0d9" stroke-width="1"/>
<text x="178" y="254.83333333333334" font-size="12.5" fill="#0b0b0b" text-anchor="end" font-weight="400">kimi-k2-7</text>
<rect x="190" y="231.3" width="185.5" height="11" rx="5.5" fill="#2a78d6"/>
<text x="383.5" y="240.33333333333334" font-size="10.5" fill="#52514e" text-anchor="start" font-weight="400">17.5%</text>
<rect x="190" y="245.3" width="88.0" height="11" rx="5.5" fill="#eb6834"/>
<text x="285.98" y="254.33333333333337" font-size="10.5" fill="#52514e" text-anchor="start" font-weight="400">8.3%</text>
<rect x="190" y="259.3" width="26.5" height="11" rx="5.5" fill="#1baf7a"/>
<text x="224.5" y="268.33333333333337" font-size="10.5" fill="#52514e" text-anchor="start" font-weight="400">2.5%</text>
<line x1="4" y1="278.6666666666667" x2="720" y2="278.6666666666667" stroke="#e1e0d9" stroke-width="1"/>
<text x="178" y="310.49999999999994" font-size="12.5" fill="#0b0b0b" text-anchor="end" font-weight="400">glm-4v-flash</text>
<rect x="190" y="287.0" width="230.0" height="11" rx="5.5" fill="#2a78d6"/>
<text x="428.02" y="295.99999999999994" font-size="10.5" fill="#52514e" text-anchor="start" font-weight="400">21.7%</text>
<rect x="190" y="301.0" width="194.0" height="11" rx="5.5" fill="#eb6834"/>
<text x="391.98" y="309.99999999999994" font-size="10.5" fill="#52514e" text-anchor="start" font-weight="400">18.3%</text>
<rect x="190" y="315.0" width="141.0" height="11" rx="5.5" fill="#1baf7a"/>
<text x="338.98" y="323.99999999999994" font-size="10.5" fill="#52514e" text-anchor="start" font-weight="400">13.3%</text>
<line x1="4" y1="334.3333333333333" x2="720" y2="334.3333333333333" stroke="#e1e0d9" stroke-width="1"/>
<text x="178" y="366.16666666666663" font-size="12.5" fill="#0b0b0b" text-anchor="end" font-weight="400">doubao-2.0-lite</text>
<rect x="190" y="342.7" width="495.0" height="11" rx="5.5" fill="#2a78d6"/>
<text x="693.02" y="351.66666666666663" font-size="10.5" fill="#52514e" text-anchor="start" font-weight="400">46.7%</text>
<rect x="190" y="356.7" width="477.0" height="11" rx="5.5" fill="#eb6834"/>
<text x="675.0" y="365.66666666666663" font-size="10.5" fill="#52514e" text-anchor="start" font-weight="400">45.0%</text>
<rect x="190" y="370.7" width="291.5" height="11" rx="5.5" fill="#1baf7a"/>
<text x="489.5" y="379.66666666666663" font-size="10.5" fill="#52514e" text-anchor="start" font-weight="400">27.5%</text>
</svg>