<svg xmlns="http://www.w3.org/2000/svg" width="780" height="260" viewBox="0 0 780 260" font-family="system-ui, -apple-system, 'Segoe UI', sans-serif">
<rect width="780" height="260" fill="#fcfcfb"/>
<text x="24" y="48" font-size="13.5" fill="#0b0b0b" text-anchor="start" font-weight="600">Moving the same attack from plain text into document structure (N=120, 95% CI)</text>
<rect x="150" y="32" width="10" height="10" rx="2" fill="#2a78d6"/>
<text x="165" y="41" font-size="11.5" fill="#52514e" text-anchor="start" font-weight="400">plain_text</text>
<rect x="253.0" y="32" width="10" height="10" rx="2" fill="#eb6834"/>
<text x="268.0" y="41" font-size="11.5" fill="#52514e" text-anchor="start" font-weight="400">doc_pipeline (SVG-as-text)</text>
<line x1="150.0" y1="56" x2="150.0" y2="220" stroke="#e1e0d9" stroke-width="1"/>
<text x="150.0" y="238" font-size="10.5" fill="#898781" text-anchor="middle" font-weight="400">0%</text>
<line x1="240.0" y1="56" x2="240.0" y2="220" stroke="#e1e0d9" stroke-width="1"/>
<text x="240.0" y="238" font-size="10.5" fill="#898781" text-anchor="middle" font-weight="400">10%</text>
<line x1="330.0" y1="56" x2="330.0" y2="220" stroke="#e1e0d9" stroke-width="1"/>
<text x="330.0" y="238" font-size="10.5" fill="#898781" text-anchor="middle" font-weight="400">20%</text>
<line x1="420.0" y1="56" x2="420.0" y2="220" stroke="#e1e0d9" stroke-width="1"/>
<text x="420.0" y="238" font-size="10.5" fill="#898781" text-anchor="middle" font-weight="400">30%</text>
<line x1="510.0" y1="56" x2="510.0" y2="220" stroke="#e1e0d9" stroke-width="1"/>
<text x="510.0" y="238" font-size="10.5" fill="#898781" text-anchor="middle" font-weight="400">40%</text>
<line x1="600.0" y1="56" x2="600.0" y2="220" stroke="#e1e0d9" stroke-width="1"/>
<text x="600.0" y="238" font-size="10.5" fill="#898781" text-anchor="middle" font-weight="400">50%</text>
<line x1="690.0" y1="56" x2="690.0" y2="220" stroke="#e1e0d9" stroke-width="1"/>
<text x="690.0" y="238" font-size="10.5" fill="#898781" text-anchor="middle" font-weight="400">60%</text>
<line x1="150" y1="220" x2="150" y2="56" stroke="#c3c2b7" stroke-width="1"/>
<text x="138" y="101.0" font-size="13" fill="#0b0b0b" text-anchor="end" font-weight="600">GLM-5.2</text>
<rect x="150" y="68.0" width="423.9" height="26" rx="13.0" fill="#2a78d6"/>
<line x1="494.7" y1="81.0" x2="654.0" y2="81.0" stroke="#0b0b0b" stroke-width="1.5" opacity="0.55"/>
<line x1="494.7" y1="77.0" x2="494.7" y2="85.0" stroke="#0b0b0b" stroke-width="1.5" opacity="0.55"/>
<line x1="654.0" y1="77.0" x2="654.0" y2="85.0" stroke="#0b0b0b" stroke-width="1.5" opacity="0.55"/>
<text x="581.9000000000001" y="85.0" font-size="11.5" fill="#52514e" text-anchor="start" font-weight="600">47.1%</text>
<rect x="150" y="100.0" width="7.2" height="26" rx="13.0" fill="#eb6834"/>
<line x1="150.9" y1="113.0" x2="191.4" y2="113.0" stroke="#0b0b0b" stroke-width="1.5" opacity="0.55"/>
<line x1="150.9" y1="109.0" x2="150.9" y2="117.0" stroke="#0b0b0b" stroke-width="1.5" opacity="0.55"/>
<line x1="191.4" y1="109.0" x2="191.4" y2="117.0" stroke="#0b0b0b" stroke-width="1.5" opacity="0.55"/>
<text x="165.2" y="117.0" font-size="11.5" fill="#52514e" text-anchor="start" font-weight="600">0.8%</text>
<line x1="10" y1="138.0" x2="690" y2="138.0" stroke="#e1e0d9" stroke-width="1"/>
<text x="138" y="183.0" font-size="13" fill="#0b0b0b" text-anchor="end" font-weight="600">DeepSeek-V4</text>
<rect x="150" y="150.0" width="442.8" height="26" rx="13.0" fill="#2a78d6"/>
<line x1="512.7" y1="163.0" x2="672.9" y2="163.0" stroke="#0b0b0b" stroke-width="1.5" opacity="0.55"/>
<line x1="512.7" y1="159.0" x2="512.7" y2="167.0" stroke="#0b0b0b" stroke-width="1.5" opacity="0.55"/>
<line x1="672.9" y1="159.0" x2="672.9" y2="167.0" stroke="#0b0b0b" stroke-width="1.5" opacity="0.55"/>
<text x="600.8" y="167.0" font-size="11.5" fill="#52514e" text-anchor="start" font-weight="600">49.2%</text>
<rect x="150" y="182.0" width="15.3" height="26" rx="13.0" fill="#eb6834"/>
<line x1="154.5" y1="195.0" x2="203.1" y2="195.0" stroke="#0b0b0b" stroke-width="1.5" opacity="0.55"/>
<line x1="154.5" y1="191.0" x2="154.5" y2="199.0" stroke="#0b0b0b" stroke-width="1.5" opacity="0.55"/>
<line x1="203.1" y1="191.0" x2="203.1" y2="199.0" stroke="#0b0b0b" stroke-width="1.5" opacity="0.55"/>
<text x="173.3" y="199.0" font-size="11.5" fill="#52514e" text-anchor="start" font-weight="600">1.7%</text>
<text x="24" y="252" font-size="10.5" fill="#898781" text-anchor="start" font-weight="400">Whiskers show Wilson 95% confidence intervals.</text>
</svg>